<?xml version="1.0" encoding="UTF-8"?>
<!DOCTYPE svg PUBLIC "-//W3C//DTD SVG 1.1//EN" "http://www.w3.org/Graphics/SVG/1.1/DTD/svg11.dtd">
<svg xmlns="http://www.w3.org/2000/svg" version="1.1" width="128px" height="128px" style="shape-rendering:geometricPrecision; text-rendering:geometricPrecision; image-rendering:optimizeQuality; fill-rule:evenodd; clip-rule:evenodd" xmlns:xlink="http://www.w3.org/1999/xlink">
<g><path style="opacity:1" fill="#172036" d="M 80.5,0.5 C 86.8421,0.333794 93.1754,0.500461 99.5,1C 102.698,1.84845 105.531,3.34845 108,5.5C 108.839,8.13956 108.339,10.4729 106.5,12.5C 103.497,16.0075 99.8307,18.5075 95.5,20C 97.5435,21.708 99.2101,23.708 100.5,26C 112.747,28.5813 119.913,36.0813 122,48.5C 124.387,62.9794 123.721,77.3127 120,91.5C 118.032,97.804 113.866,101.637 107.5,103C 107.805,106.074 108.305,109.24 109,112.5C 106.619,113.435 104.119,113.768 101.5,113.5C 101.5,114.833 101.5,116.167 101.5,117.5C 99.4727,117.662 97.4727,117.495 95.5,117C 90.3859,114.211 85.5526,111.045 81,107.5C 73.9097,109.37 66.743,110.87 59.5,112C 62.1667,113.667 62.1667,115.333 59.5,117C 62.3127,119.536 62.146,121.703 59,123.5C 57.1284,122.932 55.2951,122.265 53.5,121.5C 52.9961,124.522 51.3294,125.689 48.5,125C 41.8753,120.709 36.2086,115.376 31.5,109C 14.6667,105.5 4.5,95.3333 1,78.5C -1.12642,64.7977 0.873582,51.7977 7,39.5C 9.883,34.9499 13.7163,31.4499 18.5,29C 24.744,26.683 31.0774,24.683 37.5,23C 49.9293,11.786 64.2627,4.28603 80.5,0.5 Z"/></g>
<g><path style="opacity:1" fill="#e08242" d="M 80.5,4.5 C 86.1764,4.33391 91.8431,4.50058 97.5,5C 99.8884,5.30339 102.055,6.13672 104,7.5C 104.507,8.99608 104.007,10.1627 102.5,11C 97.2769,14.779 91.6102,17.779 85.5,20C 88.9382,20.92 91.9382,22.5867 94.5,25C 84.5634,28.2736 75.73,26.4403 68,19.5C 66.5432,16.634 66.2099,13.634 67,10.5C 71.1527,7.51761 75.6527,5.51761 80.5,4.5 Z"/></g>
<g><path style="opacity:1" fill="#43353d" d="M 81.5,7.5 C 85.485,7.62944 86.8183,9.46277 85.5,13C 82.2227,12.8622 80.8894,11.0289 81.5,7.5 Z"/></g>
<g><path style="opacity:1" fill="#695e4a" d="M 63.5,10.5 C 63.8894,17.764 67.5561,22.5974 74.5,25C 68.2511,25.8087 62.0844,25.642 56,24.5C 54.4868,21.9761 53.8201,19.3094 54,16.5C 57.0396,14.2196 60.2063,12.2196 63.5,10.5 Z"/></g>
<g><path style="opacity:1" fill="#f5dbc5" d="M 68.5,10.5 C 71.0414,11.6228 71.0414,12.9561 68.5,14.5C 67.3744,13.1916 67.3744,11.8583 68.5,10.5 Z"/></g>
<g><path style="opacity:1" fill="#675e4a" d="M 50.5,17.5 C 52.1963,19.2681 53.5296,21.4348 54.5,24C 50.5,24.6667 46.5,24.6667 42.5,24C 45.3553,21.9692 48.022,19.8025 50.5,17.5 Z"/></g>
<g><path style="opacity:1" fill="#e3e4e4" d="M 58.5,104.5 C 59.1667,105.167 59.8333,105.833 60.5,106.5C 52.16,106.666 43.8267,106.5 35.5,106C 11.8422,98.9668 2.00884,83.1335 6,58.5C 7.48079,44.355 14.9808,35.1883 28.5,31C 36.7861,29.5464 45.1195,29.213 53.5,30C 40.0233,33.1538 28.1899,39.3205 18,48.5C 7.83803,68.3469 12.0047,84.5135 30.5,97C 39.2466,101.687 48.5799,104.187 58.5,104.5 Z"/></g>
<g><path style="opacity:1" fill="#e8eaec" d="M 22.5,52.5 C 23.4959,52.4142 24.3292,52.7476 25,53.5C 26.0014,56.1732 27.5014,58.5065 29.5,60.5C 31.7081,57.9464 34.0414,55.4464 36.5,53C 38.5787,52.1923 40.5787,52.359 42.5,53.5C 39.9124,57.6756 37.0791,61.6756 34,65.5C 32.8394,70.4164 32.1728,75.4164 32,80.5C 30.2672,82.6015 28.2672,82.9348 26,81.5C 26.7088,72.2969 24.2088,64.1302 18.5,57C 20.0182,55.6494 21.3515,54.1494 22.5,52.5 Z"/></g>
<g><path style="opacity:1" fill="#efeff1" d="M 66.5,52.5 C 74.1739,52.3336 81.8406,52.5003 89.5,53C 92.4808,54.3795 93.1475,56.5462 91.5,59.5C 88.5788,60.4066 85.5788,60.7399 82.5,60.5C 82.151,66.8399 81.651,73.1732 81,79.5C 79.4348,82.8943 77.4348,83.2277 75,80.5C 74.5004,73.8417 74.3337,67.175 74.5,60.5C 71.4212,60.7399 68.4212,60.4066 65.5,59.5C 64.1668,56.8619 64.5002,54.5286 66.5,52.5 Z"/></g>
<g><path style="opacity:1" fill="#e28342" d="M 63.5,67.5 C 65.1667,67.5 66.8333,67.5 68.5,67.5C 65.9866,77.4202 59.6533,81.9202 49.5,81C 44.4361,78.3706 42.4361,74.2039 43.5,68.5C 50.4182,71.3932 57.0849,71.0598 63.5,67.5 Z"/></g>
<g><path style="opacity:1" fill="#bdc0be" d="M 99.5,78.5 C 99.7352,77.9033 100.235,77.5699 101,77.5C 106.226,79.7329 110.56,83.0662 114,87.5C 115.471,92.3708 113.805,95.7042 109,97.5C 109.005,89.5099 105.838,83.1765 99.5,78.5 Z"/></g>
<g><path style="opacity:1" fill="#888d97" d="M 58.5,104.5 C 60.5273,104.338 62.5273,104.505 64.5,105C 63.4366,106.188 62.1033,106.688 60.5,106.5C 59.8333,105.833 59.1667,105.167 58.5,104.5 Z"/></g>
<g><path style="opacity:1" fill="#655d4c" d="M 92.5,105.5 C 95.9758,104.357 99.6425,104.19 103.5,105C 101.012,106.685 101.345,108.019 104.5,109C 100.114,109.315 96.114,108.149 92.5,105.5 Z"/></g>
<g><path style="opacity:1" fill="#665e4e" d="M 87.5,105.5 C 90.7449,105.88 93.7449,107.047 96.5,109C 97.3802,110.356 97.7135,111.856 97.5,113.5C 92.6801,112.679 89.3467,110.012 87.5,105.5 Z"/></g>
<g><path style="opacity:1" fill="#655c4c" d="M 37.5,111.5 C 39.8169,110.058 41.9836,110.392 44,112.5C 47.0731,111.383 50.2397,111.216 53.5,112C 54.3146,113.943 55.3146,115.943 56.5,118C 55.5,118.667 54.5,118.667 53.5,118C 51.431,116.126 49.0977,115.126 46.5,115C 49.0062,116.516 49.8395,118.682 49,121.5C 44.3993,118.965 40.566,115.631 37.5,111.5 Z"/></g>
</svg>
